<svg width="19" height="20" viewBox="0 0 19 20" fill="none" xmlns="http://www.w3.org/2000/svg">
<path d="M17.0242 1.45696C15.0816 -0.485654 11.921 -0.485654 9.97842 1.45696L2.56002 8.87532C2.33107 9.10427 2.33107 9.47517 2.56002 9.70411C2.78897 9.93306 3.15986 9.93306 3.38881 9.70411L10.8072 2.28575C12.2472 0.846846 14.7553 0.846846 16.1954 2.28575C17.6806 3.77103 17.6806 6.18813 16.1954 7.67341L5.83662 18.1488C4.95061 19.0348 3.40693 19.0348 2.52096 18.1488C1.60689 17.2347 1.60689 15.7477 2.52096 14.8337L12.4653 4.77208C12.7973 4.44013 13.3765 4.44013 13.7085 4.77208C14.0513 5.11489 14.0513 5.67298 13.7085 6.01583L4.17908 15.6624C3.98143 15.8601 3.98143 16.2935 4.17908 16.4912C4.40803 16.7202 4.77893 16.7202 5.00787 16.4912L14.5372 6.84458C15.3374 6.04438 15.3374 4.74345 14.5372 3.94329C13.7623 3.16833 12.4103 3.16946 11.6365 3.94329L1.69217 14.0049C0.331777 15.3652 0.331777 17.6171 1.69217 18.9775C2.3567 19.6421 3.23982 20 4.17904 20C5.11826 20 6.00147 19.6421 6.66541 18.9776L17.0242 8.50216C18.9668 6.55954 18.9668 3.39954 17.0242 1.45696Z" fill="#EE1D85"/>
</svg>
